<svg width="138" height="27" viewBox="0 0 138 27" fill="none" xmlns="http://www.w3.org/2000/svg">
<g id="Logo/Facebook">
<path id="Vector" d="M9.35207 26.3837H4.2005V13.4043H0.691162V9.1784H4.20037V6.17141C4.20037 2.60812 5.7525 0.0525513 10.8901 0.0525513C11.9767 0.0525513 13.6827 0.27391 13.6827 0.27391V4.19784H11.8909C10.0652 4.19784 9.35234 4.75911 9.35234 6.31083V9.1784H13.6143L13.2348 13.4043H9.35221L9.35207 26.3837ZM21.1725 8.8407C21.0974 8.8407 21.0202 8.84347 20.9437 8.8454C16.1669 8.8454 13.9814 12.477 13.9814 17.632C13.9814 24.126 16.8163 26.7251 20.9811 26.7251C23.3639 26.7251 24.9294 25.7115 25.8809 23.8198V26.3855H30.7808V9.1802H25.8809V11.8261C25.104 10.1238 23.4947 8.86088 21.1725 8.8407ZM22.4184 12.9063C24.4246 12.9063 25.6288 14.3206 25.6288 16.7264L25.6335 19.1836C25.6335 20.8051 24.6389 22.7021 22.4184 22.7021C19.0046 22.7021 19.0958 18.9766 19.0958 17.7358C19.0958 13.5619 20.9146 12.9063 22.4184 12.9063ZM32.7596 17.7837C32.7596 15.693 32.6606 8.85189 41.4793 8.85189C45.0193 8.85189 46.4975 9.9895 46.4975 9.9895L45.3094 13.7138C45.3094 13.7138 43.8331 12.8922 41.9096 12.8922C39.4458 12.8922 37.8737 14.3357 37.8737 16.8755L37.8765 18.6967C37.8765 21.1371 39.3933 22.7662 41.9146 22.7662C43.667 22.7662 45.2822 21.9369 45.2822 21.9369L46.4672 25.5834C46.4672 25.5834 45.1157 26.7282 41.5041 26.7282C33.1073 26.7282 32.7598 20.5904 32.7598 17.7837H32.7596ZM75.2272 8.8454C80.0042 8.8454 82.2241 12.477 82.2241 17.632C82.2241 24.126 79.3891 26.7251 75.2243 26.7251C72.8415 26.7251 71.0801 25.7116 70.1285 23.8198V26.3855L65.2903 26.3836V0.575687L70.4273 0.122883V11.593C71.1687 9.5863 73.6052 8.8454 75.2273 8.8454H75.2272ZM73.787 12.9063C71.7807 12.9063 70.4273 14.3206 70.4273 16.7264L70.4225 19.1836C70.4195 20.8051 71.3598 22.7021 73.787 22.7021C77.2008 22.7021 77.1096 18.9766 77.1096 17.7358C77.1096 13.5619 75.2909 12.9063 73.787 12.9063ZM55.4105 8.85963C49.9924 8.85963 47.1321 11.8452 47.1321 17.1509V18.1367C47.1321 25.0229 51.1489 26.7959 55.9378 26.7959C60.5925 26.7959 62.6994 25.48 62.6994 25.48L61.7382 21.9759C61.7382 21.9759 59.2598 23.0416 56.5537 23.0416C53.7483 23.0416 52.5418 22.319 52.2325 19.5941H63.1101V16.7829C63.1101 11.0276 59.8999 8.85949 55.4103 8.85949L55.4105 8.85963ZM55.541 12.3685C57.4165 12.3685 58.6317 13.5308 58.565 16.2265H52.2419C52.3516 13.3893 53.6621 12.3686 55.541 12.3686V12.3685ZM92.467 8.83601C86.9031 8.83601 83.974 12.0049 83.974 17.6838C83.974 25.4756 89.0231 26.7298 92.4763 26.7298C97.5314 26.7298 100.895 23.9792 100.895 17.7546C100.895 11.2759 97.1131 8.83601 92.467 8.83601ZM92.397 12.9204C94.8435 12.9204 95.8129 14.771 95.8129 16.8775V18.6885C95.8129 21.2404 94.4565 22.7164 92.3877 22.7164C90.4529 22.7164 89.0931 21.3357 89.0931 18.6885V16.8775C89.0931 14.0542 90.7111 12.9204 92.397 12.9204ZM111.128 8.83601C105.564 8.83601 102.635 12.0049 102.635 17.6838C102.635 25.4756 107.684 26.7298 111.138 26.7298C116.193 26.7298 119.556 23.9792 119.556 17.7546C119.556 11.2759 115.774 8.83601 111.128 8.83601ZM111.058 12.9204C113.505 12.9204 114.474 14.771 114.474 16.8775V18.6885C114.474 21.2404 113.118 22.7164 111.049 22.7164C109.114 22.7164 107.754 21.3357 107.754 18.6885V16.8775C107.754 14.0542 109.372 12.9204 111.058 12.9204ZM121.497 26.3837V0.575687L126.649 0.122883V17.421L131.76 9.1784H137.201L131.869 17.7154L137.406 26.3837H131.95L126.649 17.9668V26.3837H121.497Z" fill="#17426A"/>
</g>
</svg>
