<svg width="109" height="37" viewBox="0 0 109 37" fill="none" xmlns="http://www.w3.org/2000/svg">
<path id="Logo/Twitch" d="M104.026 7.01769H99.2731V0.363892H88.837L84.0378 7.01769H75.5095L72.6579 9.86932V7.01769H66.0041V0.363892H45.0921V7.01769H15.6728L10.8726 0.363892H0.416626V23.1769L13.7242 36.4845H27.0318V32.6823L30.834 36.4845H56.4986V32.6823L60.3008 36.4845H72.6579V32.6823L76.46 36.4845H100.224L108.778 27.9296V11.7704L104.026 7.01769ZM16.5758 16.5231H9.92205V18.4242H16.5758V26.0285H6.11988L2.31771 22.2264V2.26498H9.92205V8.91877H16.5758V16.5231ZM45.0921 26.0285H22.2791L18.4769 22.2264V8.91877H26.0813V18.4242H27.9824V8.91877H35.5867V18.4242H37.4878V8.91877H45.0921V26.0285ZM54.5975 26.0285H46.9932V8.91877H54.5975V26.0285ZM54.5975 7.01769H46.9932V2.26498H54.5975V7.01769ZM70.7568 16.5231H64.103V18.4242H70.7568V26.0285H60.3008L56.4986 22.2264V2.26498H64.103V8.91877H70.7568V16.5231ZM87.8665 16.5231H80.2622V18.4242H87.8665V26.0285H76.46L72.6579 22.2264V12.7209L76.46 8.91877H87.8665V16.5231ZM106.877 26.0285H99.2731V16.5231H97.372V26.0285H89.7676V2.26498H97.372V8.91877H103.075L106.877 12.7209V26.0285Z" fill="#17426A"/>
</svg>
