<svg width="136" height="35" viewBox="0 0 136 35" fill="none" xmlns="http://www.w3.org/2000/svg">
<path id="Logo/Webflow" d="M44.3229 13.7288C44.3229 11.3096 41.9705 8.74033 37.8997 8.74033C33.3284 8.74033 28.3066 12.0938 27.5391 18.7839C26.755 25.5408 30.9593 28.5439 35.1969 28.5439C39.4346 28.5439 41.6535 26.8922 43.9225 24.6899C41.9705 22.2374 39.4513 23.3719 38.9674 23.6222C38.4336 23.8891 37.7495 24.2562 36.3481 24.2562C34.7131 24.2562 33.0447 23.5221 33.0447 20.469C43.5221 19.4346 44.3229 16.1479 44.3229 13.7288ZM39.1343 14.1292C39.0675 14.8799 38.7672 16.1646 33.4618 16.882C34.5796 12.9113 36.7151 12.6109 37.6995 12.6109C38.6171 12.6109 39.201 13.3283 39.1343 14.1292ZM21.3828 14.7798C21.3828 14.7798 19.1305 21.8537 18.947 22.4376C18.8803 21.837 17.2286 9.14074 17.2286 9.14074C13.3913 9.14074 11.3392 11.8769 10.2548 14.7631C10.2548 14.7631 7.51866 21.8537 7.28509 22.4543C7.2684 21.9038 6.86799 14.8466 6.86799 14.8466C6.63442 11.3096 3.39778 9.15742 0.778442 9.15742L3.94835 28.3937C7.96912 28.377 10.138 25.6576 11.2725 22.7713C11.2725 22.7713 13.6916 16.5149 13.7917 16.2313C13.8084 16.4983 15.5268 28.3937 15.5268 28.3937C19.5643 28.3937 21.7332 25.8411 22.901 23.0549L28.5568 9.15742C24.5694 9.15742 22.4673 11.8769 21.3828 14.7798ZM59.138 8.70696C56.6522 8.70696 54.7502 10.0583 53.1486 12.0437V12.027L54.5834 0.46521C51.28 0.46521 48.5939 3.33481 48.0767 7.60584L45.5742 28.2436C47.4761 28.2436 49.4949 27.693 50.5793 26.2916C51.547 27.5429 52.9984 28.5439 55.1506 28.5439C60.723 28.5439 64.5436 22.0706 64.5436 15.9977C64.5102 10.4587 61.8241 8.70696 59.138 8.70696ZM58.6208 18.6338C58.0369 22.0206 56.1517 24.3229 54.3331 24.3229C52.4979 24.3229 51.7138 23.5054 51.7138 23.5054C52.0642 20.5357 52.281 18.7172 52.9484 17.1489C53.6157 15.5806 55.2007 13.0781 56.8524 13.0781C58.4707 13.0781 59.2048 15.2303 58.6208 18.6338ZM78.4578 9.15742H74.5705L74.5872 8.95722C74.8541 6.42129 75.4547 5.0866 77.4401 4.86971C78.7915 4.73624 79.3921 4.03552 79.5422 3.26807C79.659 2.66746 80.026 0.581996 80.026 0.581996C72.2181 0.531945 69.7656 3.90205 69.1316 9.04064L69.1149 9.15742H69.0315C67.7635 9.15742 66.3621 10.5922 66.1285 12.4107L66.0451 13.0781H68.6478L66.4622 31.1299L65.7948 34.3665C65.8783 34.3665 65.9784 34.3832 66.0618 34.3832C69.7155 34.2497 72.0512 31.3634 72.5684 27.1758L74.2702 13.0781H75.4881C76.6893 13.0781 78.0907 11.8769 78.341 9.87482L78.4578 9.15742ZM98.6784 8.82375C94.1905 8.82375 89.9529 12.1271 88.6515 17.3158C87.3502 22.5044 89.3189 28.644 95.9256 28.644C102.516 28.644 106.32 22.2541 106.32 16.932C106.32 11.6433 102.733 8.82375 98.6784 8.82375ZM100.497 18.4669C100.263 20.8193 99.229 24.3896 96.3928 24.3896C93.5398 24.3896 93.9402 20.2187 94.2239 18.2334C94.5242 16.1145 95.7087 13.0948 98.2613 13.0948C100.547 13.0948 100.764 15.8142 100.497 18.4669ZM128.492 14.7798C128.492 14.7798 126.24 21.8537 126.056 22.4376C125.99 21.837 124.338 9.14074 124.338 9.14074C120.501 9.14074 118.449 11.8769 117.364 14.7631C117.364 14.7631 114.628 21.8537 114.394 22.4543C114.378 21.9038 113.977 14.8466 113.977 14.8466C113.744 11.3096 110.507 9.15742 107.888 9.15742L111.041 28.3937C115.062 28.377 117.231 25.6576 118.365 22.7713C118.365 22.7713 120.784 16.5149 120.868 16.2313C120.901 16.4983 122.603 28.3937 122.603 28.3937C126.64 28.3937 128.809 25.8411 129.977 23.0549L135.633 9.15742C131.662 9.15742 129.56 11.8769 128.492 14.7798ZM82.1282 0.581996L78.8582 26.9589L78.1908 30.2123C78.2743 30.2123 78.3744 30.2289 78.4578 30.2289C81.978 30.1789 84.4806 27.0924 84.9477 23.2051L86.833 8.07298C87.4002 3.45159 84.6474 0.581996 82.1282 0.581996Z" fill="#17426A"/>
</svg>
