<svg width="127" height="29" viewBox="0 0 127 29" fill="none" xmlns="http://www.w3.org/2000/svg">
<g id="Logo/YouTube">
<path id="Vector" d="M21.4016 28.4437L13.1523 28.2912C10.4813 28.2381 7.80371 28.3442 5.18521 27.7937C1.20166 26.9712 0.919467 22.9385 0.624147 19.5558C0.217261 14.8001 0.374765 9.95823 1.1426 5.24235C1.57573 2.59588 3.28203 1.01729 5.92023 0.844834C14.8258 0.221355 23.7904 0.294315 32.6763 0.586156C33.6147 0.612687 34.5597 0.758608 35.4851 0.924427C40.0527 1.73362 40.1643 6.30359 40.4596 10.1506C40.7549 14.0374 40.6302 17.9441 40.0658 21.8043C39.613 25.0013 38.7467 27.681 35.0913 27.9396C30.5106 28.2779 26.0348 28.5498 21.441 28.4636C21.441 28.4437 21.4147 28.4437 21.4016 28.4437ZM16.5518 20.3518C20.0037 18.3487 23.3901 16.3787 26.8223 14.3889C23.3638 12.3858 19.984 10.4159 16.5518 8.42607V20.3518Z" fill="#17426A"/>
<g id="Group">
<path id="Vector_2" d="M106.627 24.8091C106.47 25.4591 106.332 25.9698 106.194 26.5137H102.965V1.34216H106.732V10.6281C106.929 10.3761 107.027 10.2699 107.113 10.1572C107.756 9.26175 108.589 8.67806 109.666 8.45254C111.378 8.11427 112.842 8.87704 113.36 10.5419C113.695 11.5766 113.912 12.6843 113.938 13.7654C113.99 16.5446 113.951 19.3171 113.853 22.0963C113.813 22.9453 113.557 23.8141 113.236 24.6101C112.179 27.2367 108.727 27.6347 107.014 25.3596C106.909 25.2203 106.811 25.0678 106.627 24.8091ZM106.811 17.8844V22.4876C106.811 23.2371 107.205 23.6948 107.946 23.8672C108.675 24.0397 109.265 23.7545 109.561 23.0713C109.685 22.7861 109.81 22.4876 109.817 22.1891C109.889 19.3768 109.954 16.5645 109.974 13.7455C109.974 13.2215 109.849 12.6776 109.692 12.1669C109.397 11.245 108.583 10.973 107.782 11.5103C107.178 11.9215 106.811 12.5052 106.811 13.2812V17.8844ZM96.5731 8.81072H100.517V26.527H97.4394C97.3278 25.8571 97.2163 25.1672 97.085 24.358C96.875 24.6698 96.7503 24.8688 96.6191 25.0678C95.5953 26.5601 94.1449 27.0709 92.4321 26.7989C90.9686 26.5601 90.0892 25.4193 89.8923 23.5488C89.8333 22.9917 89.807 22.4279 89.807 21.8707C89.7939 17.7252 89.807 13.5664 89.807 9.42094V8.79745H93.7971V9.52043C93.7971 13.5267 93.784 17.5262 93.8102 21.5325C93.8102 22.1029 93.8693 22.6932 93.9677 23.2636C94.0793 23.8473 94.4993 24.0596 95.0637 24.0198C95.9759 23.9468 96.6059 23.2636 96.6059 22.3483V9.59339C96.5731 9.33471 96.5731 9.09593 96.5731 8.81072ZM69.4168 8.79745H73.3807V9.54696C73.3807 13.5333 73.3675 17.513 73.3938 21.486C73.3938 22.0565 73.4463 22.6468 73.5644 23.2039C73.7154 23.8606 74.096 24.0728 74.7457 23.9866C75.6448 23.8606 76.1895 23.2305 76.196 22.3085V9.61992V8.82398H80.1402V26.527H77.0754C76.9639 25.8703 76.8523 25.1938 76.7079 24.3381C76.5111 24.6366 76.3995 24.8091 76.2879 24.9882C75.2641 26.5071 73.8269 27.0642 72.0747 26.7923C70.6703 26.58 69.8106 25.5321 69.5481 23.8141C69.4759 23.2769 69.4234 22.7463 69.4234 22.209C69.4102 17.9043 69.4102 13.5797 69.4102 9.27501L69.4168 8.79745ZM67.3824 18.2558C67.3693 18.8528 67.3299 19.4498 67.2971 20.0467C67.1461 21.8376 67.0739 24.3779 65.6433 25.6846C64.7311 26.5071 63.576 26.8056 62.3816 26.8454C61.8501 26.8586 61.3119 26.8586 60.7803 26.7857C58.2668 26.4009 57.0987 25.28 56.6787 22.4876C56.1996 19.264 56.1602 15.9874 56.7312 12.7639C57.3218 9.42757 59.3562 8.24693 62.5194 8.46581C65.4726 8.67806 66.7917 10.6347 67.1396 13.4205C67.3299 15.019 67.4218 16.6374 67.3824 18.2558ZM63.366 17.6456C63.366 16.5114 63.3923 15.3706 63.3529 14.2364C63.3267 13.5797 63.2413 12.9164 63.1035 12.2664C62.946 11.5169 62.4735 11.1587 61.8829 11.172C61.3054 11.1853 60.8985 11.5434 60.6885 12.2399C60.6163 12.4986 60.5375 12.7639 60.5375 13.0226C60.5375 14.8002 60.5244 16.5844 60.5113 18.362C60.4981 20.0202 60.2881 21.758 60.8066 23.3432C60.9641 23.8274 61.371 24.0927 61.9026 24.0927C62.421 24.0927 62.7623 23.834 62.9526 23.3698C63.1035 23.0116 63.2348 22.6202 63.2348 22.2355C63.2807 20.71 63.366 19.1778 63.366 17.6456ZM50.8904 14.3093C51.2382 12.5914 51.5664 10.9133 51.9273 9.22858C52.3801 7.08618 52.8855 4.94378 53.3317 2.79475C53.4433 2.27076 53.6533 2.14473 54.1455 2.158C55.2021 2.1978 56.2784 2.17127 57.4071 2.17127C57.0396 3.53763 56.6787 4.83766 56.3243 6.11779C55.2021 10.1373 54.0799 14.17 52.9708 18.2028C52.8855 18.5145 52.8461 18.8528 52.8461 19.1844C52.833 21.3865 52.8461 23.582 52.8461 25.7841V26.5004H48.9938C48.9807 26.3015 48.9544 26.1025 48.9544 25.9035C48.9544 24.6565 48.856 23.4029 48.9675 22.1692C49.2497 19.2043 48.3178 16.4783 47.5631 13.719C46.5656 10.071 45.555 6.40964 44.5574 2.76159C44.5049 2.58913 44.4852 2.40341 44.4327 2.19116H48.3638C49.1907 6.21728 50.0241 10.2434 50.8904 14.3093ZM126.263 18.9324H119.621C119.693 20.2789 119.72 21.559 119.857 22.8259C119.956 23.708 120.435 24.0861 121.19 24.0927C121.977 24.106 122.437 23.708 122.62 22.8325C122.679 22.5473 122.719 22.2621 122.745 21.9702C122.771 21.7115 122.784 21.433 122.804 21.0615C123.926 21.1212 125.022 21.1876 126.105 21.234C126.735 23.1243 125.6 25.5519 123.69 26.3015C122.187 26.8984 120.645 26.8984 119.109 26.4407C117.974 26.1025 117.127 25.3729 116.747 24.2519C116.392 23.2039 116.058 22.1095 115.985 21.0151C115.789 18.3155 115.716 15.5895 116.123 12.8833C116.195 12.4322 116.32 12.0011 116.458 11.5633C117.009 9.75921 118.21 8.65153 120.067 8.46581C121.078 8.36632 122.122 8.40612 123.119 8.57857C124.734 8.86378 125.593 10.0378 125.967 11.5766C126.138 12.2996 126.263 13.0425 126.289 13.7787C126.295 15.4701 126.263 17.1482 126.263 18.9324ZM122.489 16.6043C122.489 15.2711 122.502 14.0175 122.476 12.7572C122.476 12.4588 122.364 12.147 122.253 11.8618C122.03 11.3047 121.564 11.1521 121.006 11.1521C120.448 11.1521 120.094 11.4373 119.956 11.948C119.536 13.4802 119.674 15.0456 119.687 16.6175C120.691 16.6043 121.603 16.6043 122.489 16.6043Z" fill="#17426A"/>
<path id="Vector_3" d="M83.1849 5.42157H79.2802V2.22455H90.9354V5.40167H87.0569V26.5007H83.1915L83.1849 5.42157Z" fill="#17426A"/>
</g>
</g>
</svg>
